<?xml version="1.0" encoding="UTF-8" standalone="no"?><!DOCTYPE svg PUBLIC "-//W3C//DTD SVG 1.1//EN" "http://www.w3.org/Graphics/SVG/1.1/DTD/svg11.dtd"><svg width="100%" height="100%" viewBox="0 0 1200 1200" version="1.1" xmlns="http://www.w3.org/2000/svg" xmlns:xlink="http://www.w3.org/1999/xlink" xml:space="preserve" xmlns:serif="http://www.serif.com/" style="fill-rule:evenodd;clip-rule:evenodd;stroke-linejoin:round;stroke-miterlimit:1.41421;"><path d="M777.201,345.315l136.176,-21.568c24.274,-3.845 47.104,12.741 50.948,37.016l102.171,645.078c3.844,24.274 -12.742,47.104 -37.017,50.948l-742.856,117.657c-24.274,3.845 -47.104,-12.742 -50.948,-37.016l-102.171,-645.078c-3.844,-24.274 12.742,-47.104 37.017,-50.949l136.176,-21.568l24.205,-344.663l1.682,0.118l-0.059,-0.375l313.525,-49.658l0.06,0.375l1.563,-0.632l129.528,320.315Zm-71.89,11.386l-104.191,-257.656l-203.063,32.162l-19.47,277.242l326.724,-51.748Z"/></svg>